<svg xmlns="http://www.w3.org/2000/svg" xmlns:xlink="http://www.w3.org/1999/xlink" version="1.1" x="0px" y="0px" viewBox="0 0 500 625" style="enable-background:new 0 0 500 500;" xml:space="preserve"><g><g><path d="M262.9,32.4v64c32.9,2.7,62.9,15.8,86.6,35.9L394.8,87C359.3,55.4,313.4,35.3,262.9,32.4z M96.3,262.9h-64    c2.9,50.5,23.1,96.4,54.6,131.9l45.2-45.2C112.1,325.8,99.1,295.8,96.3,262.9z M87,105.2c-31.6,35.5-51.7,81.4-54.6,131.9h64    c2.7-32.9,15.8-62.9,35.9-86.6L87,105.2z M105.2,87l45.2,45.2c23.8-20.1,53.7-33.2,86.6-35.9v-64C186.6,35.3,140.7,55.4,105.2,87z     M150.5,367.8L105.2,413c35.5,31.6,81.4,51.7,131.9,54.6v-64C204.2,400.9,174.2,387.9,150.5,367.8z M349.5,367.8    c-23.8,20.1-53.7,33.2-86.6,35.9v64c50.5-2.9,96.4-23.1,131.9-54.6L349.5,367.8z M403.7,262.9c-2.7,32.9-15.8,62.9-35.9,86.6    l45.2,45.2c31.6-35.5,51.7-81.4,54.6-131.9H403.7z M413,105.2l-45.2,45.2c20.1,23.8,33.2,53.7,35.9,86.6h64    C464.7,186.6,444.6,140.7,413,105.2z"/><g><path d="M257.9,32.4c0,21.3,0,42.7,0,64c0,2.9,2.3,4.8,5,5c30.5,2.7,59.6,14.8,83.1,34.4c2.1,1.7,5,2,7.1,0     c15.1-15.1,30.2-30.2,45.2-45.2c1.8-1.8,2-5.3,0-7.1c-37.7-33.3-85.2-53-135.4-56.1c-6.4-0.4-6.4,9.6,0,10     c47.4,2.9,92.7,21.7,128.3,53.2c0-2.4,0-4.7,0-7.1c-15.1,15.1-30.2,30.2-45.2,45.2c2.4,0,4.7,0,7.1,0     c-25.7-21.5-56.8-34.4-90.2-37.4c1.7,1.7,3.3,3.3,5,5c0-21.3,0-42.7,0-64C267.9,25.9,257.9,25.9,257.9,32.4z"/><path d="M96.3,257.9c-21.3,0-42.7,0-64,0c-2.6,0-5.2,2.3-5,5c3.1,50.2,22.8,97.7,56.1,135.4c1.8,2,5.3,1.8,7.1,0     c15.1-15.1,30.2-30.2,45.2-45.2c2-2,1.7-5,0-7.1c-19.7-23.5-31.7-52.6-34.4-83.1c-0.6-6.4-10.6-6.4-10,0     c2.9,33.4,15.9,64.5,37.4,90.2c0-2.4,0-4.7,0-7.1c-15.1,15.1-30.2,30.2-45.2,45.2c2.4,0,4.7,0,7.1,0     c-31.4-35.6-50.2-80.9-53.2-128.3c-1.7,1.7-3.3,3.3-5,5c21.3,0,42.7,0,64,0C102.8,267.9,102.8,257.9,96.3,257.9z"/><path d="M83.5,101.7c-33.3,37.7-53,85.2-56.1,135.4c-0.2,2.7,2.4,5,5,5c21.3,0,42.7,0,64,0c2.9,0,4.8-2.3,5-5     c2.7-30.5,14.8-59.6,34.4-83.1c1.7-2.1,2-5,0-7.1c-15.1-15.1-30.2-30.2-45.2-45.2c-4.6-4.6-11.6,2.5-7.1,7.1     c15.1,15.1,30.2,30.2,45.2,45.2c0-2.4,0-4.7,0-7.1c-21.5,25.7-34.4,56.8-37.4,90.2c1.7-1.7,3.3-3.3,5-5c-21.3,0-42.7,0-64,0     c1.7,1.7,3.3,3.3,5,5c2.9-47.4,21.7-92.7,53.2-128.3C94.8,104,87.7,96.9,83.5,101.7z"/><path d="M101.7,90.5c15.1,15.1,30.2,30.2,45.2,45.2c2,2,5,1.7,7.1,0c23.5-19.7,52.6-31.7,83.1-34.4     c2.7-0.2,5-2.1,5-5c0-21.3,0-42.7,0-64c0-2.6-2.3-5.2-5-5c-50.2,3.1-97.7,22.8-135.4,56.1c-4.8,4.3,2.3,11.3,7.1,7.1     c35.6-31.4,80.9-50.2,128.3-53.2c-1.7-1.7-3.3-3.3-5-5c0,21.3,0,42.7,0,64c1.7-1.7,3.3-3.3,5-5c-33.4,2.9-64.5,15.9-90.2,37.4     c2.4,0,4.7,0,7.1,0c-15.1-15.1-30.2-30.2-45.2-45.2C104.2,78.9,97.1,86,101.7,90.5z"/><path d="M146.9,364.2c-15.1,15.1-30.2,30.2-45.2,45.2c-1.8,1.8-2,5.3,0,7.1c37.7,33.3,85.2,53,135.4,56.1     c2.7,0.2,5-2.4,5-5c0-21.3,0-42.7,0-64c0-2.9-2.3-4.8-5-5c-30.5-2.7-59.6-14.8-83.1-34.4c-4.9-4.1-12,2.9-7.1,7.1     c25.7,21.5,56.8,34.4,90.2,37.4c-1.7-1.7-3.3-3.3-5-5c0,21.3,0,42.7,0,64c1.7-1.7,3.3-3.3,5-5c-47.4-2.9-92.7-21.7-128.3-53.2     c0,2.4,0,4.7,0,7.1c15.1-15.1,30.2-30.2,45.2-45.2C158.6,366.7,151.5,359.7,146.9,364.2z"/><path d="M346,364.2c-23.5,19.7-52.6,31.7-83.1,34.4c-2.7,0.2-5,2.1-5,5c0,21.3,0,42.7,0,64c0,2.6,2.3,5.2,5,5     c50.2-3.1,97.7-22.8,135.4-56.1c2-1.8,1.8-5.3,0-7.1c-15.1-15.1-30.2-30.2-45.2-45.2c-4.6-4.6-11.6,2.5-7.1,7.1     c15.1,15.1,30.2,30.2,45.2,45.2c0-2.4,0-4.7,0-7.1c-35.6,31.4-80.9,50.2-128.3,53.2c1.7,1.7,3.3,3.3,5,5c0-21.3,0-42.7,0-64     c-1.7,1.7-3.3,3.3-5,5c33.4-2.9,64.5-15.9,90.2-37.4C358,367.2,350.9,360.1,346,364.2z"/><path d="M398.7,262.9c-2.7,30.5-14.8,59.6-34.4,83.1c-1.7,2.1-2,5,0,7.1c15.1,15.1,30.2,30.2,45.2,45.2     c1.8,1.8,5.3,2,7.1,0c33.3-37.7,53-85.2,56.1-135.4c0.2-2.7-2.4-5-5-5c-21.3,0-42.7,0-64,0c-6.4,0-6.4,10,0,10     c21.3,0,42.7,0,64,0c-1.7-1.7-3.3-3.3-5-5c-2.9,47.4-21.7,92.7-53.2,128.3c2.4,0,4.7,0,7.1,0c-15.1-15.1-30.2-30.2-45.2-45.2     c0,2.4,0,4.7,0,7.1c21.5-25.7,34.4-56.8,37.4-90.2C409.2,256.5,399.2,256.5,398.7,262.9z"/><path d="M409.5,101.7c-15.1,15.1-30.2,30.2-45.2,45.2c-2,2-1.7,5,0,7.1c19.7,23.5,31.7,52.6,34.4,83.1     c0.2,2.7,2.1,5,5,5c21.3,0,42.7,0,64,0c2.6,0,5.2-2.3,5-5c-3.1-50.2-22.8-97.7-56.1-135.4c-4.3-4.8-11.3,2.3-7.1,7.1     c31.4,35.6,50.2,80.9,53.2,128.3c1.7-1.7,3.3-3.3,5-5c-21.3,0-42.7,0-64,0c1.7,1.7,3.3,3.3,5,5c-2.9-33.4-15.9-64.5-37.4-90.2     c0,2.4,0,4.7,0,7.1c15.1-15.1,30.2-30.2,45.2-45.2C421.1,104.2,414,97.1,409.5,101.7z"/></g></g></g><text x="0" y="515" fill="#000000" font-size="5px" font-weight="bold" font-family="'Helvetica Neue', Helvetica, Arial-Unicode, Arial, Sans-serif">Created by Neha Tyagi</text><text x="0" y="520" fill="#000000" font-size="5px" font-weight="bold" font-family="'Helvetica Neue', Helvetica, Arial-Unicode, Arial, Sans-serif">from the Noun Project</text></svg>